<?xml version="1.0" encoding="UTF-8" standalone="no"?>
<!-- Created with Inkscape (http://www.inkscape.org/) -->

<svg
   version="1.1"
   id="svg2"
   width="666.66669"
   height="666.66669"
   viewBox="0 0 666.66669 666.66669"
   sodipodi:docname="7035931.svg"
   inkscape:export-filename="7035931.eps.webp"
   inkscape:export-xdpi="720.00006"
   inkscape:export-ydpi="720.00006"
   inkscape:version="1.2.2 (732a01da63, 2022-12-09)"
   xmlns:inkscape="http://www.inkscape.org/namespaces/inkscape"
   xmlns:sodipodi="http://sodipodi.sourceforge.net/DTD/sodipodi-0.dtd"
   xmlns:xlink="http://www.w3.org/1999/xlink"
   xmlns="http://www.w3.org/2000/svg"
   xmlns:svg="http://www.w3.org/2000/svg">
  <defs
     id="defs6">
    <linearGradient
       inkscape:collect="always"
       id="linearGradient5038">
      <stop
         style="stop-color:#ffffff;stop-opacity:1;"
         offset="0"
         id="stop5034" />
      <stop
         style="stop-color:#d45500;stop-opacity:0.2843602;"
         offset="1"
         id="stop5036" />
    </linearGradient>
    <clipPath
       clipPathUnits="userSpaceOnUse"
       id="clipPath128">
      <path
         d="m 1495.48,2462.83 c 11.12,0.79 16.68,1.18 27.8,1.96 9.42,0.65 16.77,6.12 21.86,16.21 4.96,9.83 7.49,24.07 7.5,42.39 0.01,9.8 0.01,14.7 0.01,24.5 0.01,18.3 -2.48,32.33 -7.44,41.68 -5.09,9.58 -12.45,14.34 -21.87,14.05 -11.12,-0.33 -16.68,-0.51 -27.81,-0.86 -0.02,-55.97 -0.03,-83.96 -0.05,-139.93 z m -0.08,-197.82 c 12.18,1.56 18.27,2.32 30.44,3.84 9.41,1.16 16.76,7.02 21.86,17.39 4.96,10.09 7.48,24.45 7.49,42.75 0.01,11.97 0.01,17.95 0.02,29.93 0.01,18.29 -2.49,32.17 -7.45,41.26 -5.07,9.3 -12.44,13.68 -21.84,12.89 -12.19,-1.02 -18.28,-1.54 -30.46,-2.58 -0.03,-58.2 -0.04,-87.29 -0.06,-145.48 z m -110.76,-104.77 c 0,35.94 0,53.9 0,89.84 7.59,1.07 11.39,1.61 18.98,2.66 0.01,115.68 0.03,231.34 0.04,347.01 -7.61,-0.26 -11.41,-0.39 -19.01,-0.65 0,35.93 0,53.89 0,89.83 66.91,0.48 100.35,0.7 167.26,1.12 29.97,0.18 53.47,-10.46 69.84,-31.22 15.89,-20.14 23.59,-48.28 23.56,-86.37 -0.02,-23.37 -3.18,-43.3 -9.4,-59.34 -6.42,-16.58 -13.97,-29.38 -22.42,-38.04 -8.82,-9.04 -17.4,-15.38 -25.51,-18.81 -2.34,-1 -3.51,-1.48 -5.86,-2.48 0,-11.63 -0.01,-17.45 -0.01,-29.08 2.63,-0.26 3.93,-0.39 6.56,-0.65 16.72,-1.64 31.96,-9.96 45.31,-24.51 12.39,-13.51 18.39,-39.01 18.36,-78.15 -0.03,-42.06 -8.75,-72.74 -26.62,-94.22 -18.76,-22.57 -43.68,-36.37 -74.08,-40.74 -66.83,-9.63 -100.23,-14.87 -167,-26.2 z"
         id="path126" />
    </clipPath>
    <linearGradient
       x1="0"
       y1="0"
       x2="1"
       y2="0"
       gradientUnits="userSpaceOnUse"
       gradientTransform="matrix(0,-418.499,-418.499,0,1518.49,2650.33)"
       spreadMethod="pad"
       id="linearGradient138">
      <stop
         style="stop-opacity:1;stop-color:#aaacab"
         offset="0"
         id="stop130" />
      <stop
         style="stop-opacity:1;stop-color:#aaacab"
         offset="0.5025"
         id="stop132" />
      <stop
         style="stop-opacity:1;stop-color:#ffffff"
         offset="0.5175"
         id="stop134" />
      <stop
         style="stop-opacity:1;stop-color:#ffffff"
         offset="1"
         id="stop136" />
    </linearGradient>
    <clipPath
       clipPathUnits="userSpaceOnUse"
       id="clipPath148">
      <path
         d="m 1678.97,2203.54 c 0.03,33.11 0.04,49.67 0.07,82.79 7.6,0.79 11.4,1.18 19,1.95 0.09,106.74 0.18,213.46 0.27,320.2 -7.61,-0.19 -11.41,-0.29 -19.02,-0.49 0.03,33.12 0.05,49.68 0.07,82.79 96.85,0.52 145.27,0.74 242.12,1.1 -0.05,-65.97 -0.09,-98.95 -0.15,-164.92 -28.25,-0.95 -42.37,-1.46 -70.62,-2.53 0.04,35 0.05,52.5 0.09,87.49 -24.24,-0.48 -36.36,-0.74 -60.59,-1.28 -0.05,-50.42 -0.07,-75.63 -0.12,-126.05 13.39,0.66 20.08,0.99 33.46,1.61 -0.01,-19.29 -0.02,-28.93 -0.04,-48.23 -13.38,-0.77 -20.08,-1.16 -33.46,-1.96 -0.05,-55.56 -0.07,-83.34 -0.13,-138.9 24.24,2.19 36.35,3.23 60.59,5.23 0.03,40.07 0.05,60.1 0.09,100.17 28.25,1.77 42.37,2.6 70.62,4.17 -0.07,-70.98 -0.1,-106.47 -0.17,-177.44 -96.87,-8.5 -145.29,-13.64 -242.08,-25.7 z"
         id="path146" />
    </clipPath>
    <linearGradient
       x1="0"
       y1="0"
       x2="1"
       y2="0"
       gradientUnits="userSpaceOnUse"
       gradientTransform="matrix(0,-385.752,-385.752,0,1800.23,2655.28)"
       spreadMethod="pad"
       id="linearGradient158">
      <stop
         style="stop-opacity:1;stop-color:#aaacab"
         offset="0"
         id="stop150" />
      <stop
         style="stop-opacity:1;stop-color:#aaacab"
         offset="0.5025"
         id="stop152" />
      <stop
         style="stop-opacity:1;stop-color:#ffffff"
         offset="0.5175"
         id="stop154" />
      <stop
         style="stop-opacity:1;stop-color:#ffffff"
         offset="1"
         id="stop156" />
    </linearGradient>
    <clipPath
       clipPathUnits="userSpaceOnUse"
       id="clipPath168">
      <path
         d="m 2060.73,2231.46 c -23.78,-1.62 -46.54,0.04 -67.66,5.03 -18.47,4.38 -33.28,9.72 -44.11,15.98 0.04,41.38 0.06,62.06 0.1,103.43 27.85,1.73 41.78,2.54 69.63,4.04 0.97,-10.16 3.28,-18.15 6.92,-23.84 5.02,-7.82 13.05,-11.28 24.55,-10.64 9.5,0.53 16.4,3.5 21.13,9.09 3.76,4.42 8.25,12.76 8.26,27.36 0.01,9.8 -2.54,18.53 -7.38,25.19 -4.02,5.53 -10.37,10.65 -19.38,15.71 -13.15,6.8 -19.72,10.21 -32.87,17.03 -26.66,15.13 -46.05,33.73 -57.46,55.22 -11.07,20.81 -16.66,50.31 -16.63,87.48 0.04,45.58 8.81,79.27 26.81,102.66 18.25,23.73 49.8,35.64 93.81,35.71 21.39,0.04 41.78,-3.42 60.55,-10.22 16.66,-6.03 30.53,-13.86 41.29,-23.31 -0.02,-35.92 -0.04,-53.89 -0.06,-89.82 -24.95,-0.37 -37.42,-0.56 -62.38,-1 -2.09,13.62 -8.95,30.28 -29.97,29.97 -9.18,-0.13 -15.51,-2.23 -19.93,-6.56 -3.76,-3.7 -8.29,-11.29 -8.3,-26.43 -0.01,-10.85 2.99,-19.86 8.64,-26 4.27,-4.63 10.78,-9.17 19.9,-13.82 13.19,-6.99 19.8,-10.47 33,-17.42 25.49,-13.2 44.17,-30.59 55.54,-51.68 11.09,-20.6 16.7,-48.42 16.68,-82.8 -0.03,-47.65 -9.75,-82.84 -29.73,-107.91 -20.31,-25.5 -50.91,-39.74 -90.95,-42.45 z"
         id="path166" />
    </clipPath>
    <linearGradient
       x1="0"
       y1="0"
       x2="1"
       y2="0"
       gradientUnits="userSpaceOnUse"
       gradientTransform="matrix(0,-357.761,-357.761,0,2063.62,2658.39)"
       spreadMethod="pad"
       id="linearGradient178">
      <stop
         style="stop-opacity:1;stop-color:#aaacab"
         offset="0"
         id="stop170" />
      <stop
         style="stop-opacity:1;stop-color:#aaacab"
         offset="0.5025"
         id="stop172" />
      <stop
         style="stop-opacity:1;stop-color:#ffffff"
         offset="0.5175"
         id="stop174" />
      <stop
         style="stop-opacity:1;stop-color:#ffffff"
         offset="1"
         id="stop176" />
    </linearGradient>
    <clipPath
       clipPathUnits="userSpaceOnUse"
       id="clipPath188">
      <path
         d="m 2267.46,2250.54 c 0.02,30.06 0.03,45.08 0.04,75.14 10.66,0.32 15.99,0.46 26.65,0.74 0.04,97.13 0.09,194.28 0.13,291.42 -15.57,-0.11 -23.35,-0.16 -38.92,-0.28 -0.01,-18.67 -0.02,-28.01 -0.03,-46.68 -20.34,-0.24 -30.51,-0.36 -50.85,-0.64 0.03,48.98 0.05,73.47 0.08,122.45 108.57,0.21 162.85,0.26 271.42,0.28 0,-48.28 0,-72.43 0,-120.71 -20.35,-0.03 -30.52,-0.05 -50.86,-0.12 0,18.5 0,27.76 0.01,46.27 -15.57,-0.04 -23.36,-0.06 -38.92,-0.12 -0.03,-96.66 -0.05,-193.34 -0.08,-290.01 10.66,0.16 15.99,0.23 26.65,0.34 -0.01,-29.82 -0.01,-44.74 -0.02,-74.57 -58.12,-0.77 -87.18,-1.47 -145.3,-3.51 z"
         id="path186" />
    </clipPath>
    <linearGradient
       x1="0"
       y1="0"
       x2="1"
       y2="0"
       gradientUnits="userSpaceOnUse"
       gradientTransform="matrix(0,-349.487,-349.487,0,2340.23,2659.8)"
       spreadMethod="pad"
       id="linearGradient198">
      <stop
         style="stop-opacity:1;stop-color:#aaacab"
         offset="0"
         id="stop190" />
      <stop
         style="stop-opacity:1;stop-color:#aaacab"
         offset="0.5025"
         id="stop192" />
      <stop
         style="stop-opacity:1;stop-color:#ffffff"
         offset="0.5175"
         id="stop194" />
      <stop
         style="stop-opacity:1;stop-color:#ffffff"
         offset="1"
         id="stop196" />
    </linearGradient>
    <clipPath
       clipPathUnits="userSpaceOnUse"
       id="clipPath208">
      <path
         d="m 2503.49,2254.63 c 0,29.78 0,44.69 0,74.47 7.61,0 11.42,-0.01 19.03,-0.03 0,96.48 -0.01,192.95 -0.02,289.42 -7.61,0 -11.41,0.01 -19.01,0.01 0,29.79 0,44.68 0,74.47 85.14,0 127.71,-0.03 212.85,-0.15 0.03,-52.71 0.04,-79.07 0.07,-131.78 -21.11,0.22 -31.66,0.32 -52.76,0.49 -0.01,22.62 -0.02,33.93 -0.03,56.55 -19.67,0.1 -29.51,0.14 -49.19,0.21 0.01,-48.53 0.02,-72.81 0.03,-121.34 22.99,-0.19 34.49,-0.31 57.46,-0.59 0.01,-18.03 0.01,-27.04 0.02,-45.07 -22.98,0.34 -34.48,0.48 -57.46,0.71 0.01,-49.49 0.02,-74.24 0.03,-123.73 19.95,-0.28 29.92,-0.46 49.87,-0.88 0.01,-29.92 0.01,-44.88 0.02,-74.81 -64.36,1.6 -96.54,2.01 -160.91,2.05 z"
         id="path206" />
    </clipPath>
    <linearGradient
       x1="0"
       y1="0"
       x2="1"
       y2="0"
       gradientUnits="userSpaceOnUse"
       gradientTransform="matrix(0,-347.871,-347.871,0,2609.95,2659.96)"
       spreadMethod="pad"
       id="linearGradient218">
      <stop
         style="stop-opacity:1;stop-color:#aaacab"
         offset="0"
         id="stop210" />
      <stop
         style="stop-opacity:1;stop-color:#aaacab"
         offset="0.5025"
         id="stop212" />
      <stop
         style="stop-opacity:1;stop-color:#ffffff"
         offset="0.5175"
         id="stop214" />
      <stop
         style="stop-opacity:1;stop-color:#ffffff"
         offset="1"
         id="stop216" />
    </linearGradient>
    <clipPath
       clipPathUnits="userSpaceOnUse"
       id="clipPath228">
      <path
         d="m 2879.61,2616.25 c -10.67,0.13 -18.98,-4.68 -24.7,-14.24 -5.59,-9.37 -8.44,-23.39 -8.42,-41.69 0.05,-73.02 0.08,-109.52 0.13,-182.53 0.02,-18.78 2.9,-33.08 8.58,-42.59 5.71,-9.6 14,-14.73 24.63,-15.24 10.67,-0.52 18.98,3.97 24.69,13.38 5.62,9.23 8.45,23.28 8.44,41.71 -0.07,73.61 -0.1,110.42 -0.16,184.03 -0.01,18.44 -2.87,32.68 -8.49,42.26 -5.74,9.77 -14.05,14.78 -24.7,14.91 z m 0.29,-381.04 c -44.27,2.59 -78.75,22.59 -102.49,59.58 -23.67,36.87 -35.69,96.15 -35.74,176.7 -0.04,80.56 11.91,139.41 35.53,175.25 23.68,35.95 58.11,54.32 102.34,54.26 44.23,-0.07 78.68,-18.68 102.42,-55.94 23.67,-37.14 35.72,-98.54 35.79,-181.85 0.07,-83.32 -11.85,-143.7 -35.46,-179.04 -23.69,-35.44 -58.13,-51.55 -102.39,-48.96 z"
         id="path226" />
    </clipPath>
    <linearGradient
       x1="0"
       y1="0"
       x2="1"
       y2="0"
       gradientUnits="userSpaceOnUse"
       gradientTransform="matrix(0,-354.722,-354.722,0,2879.71,2658.84)"
       spreadMethod="pad"
       id="linearGradient238">
      <stop
         style="stop-opacity:1;stop-color:#aaacab"
         offset="0"
         id="stop230" />
      <stop
         style="stop-opacity:1;stop-color:#aaacab"
         offset="0.5025"
         id="stop232" />
      <stop
         style="stop-opacity:1;stop-color:#ffffff"
         offset="0.5175"
         id="stop234" />
      <stop
         style="stop-opacity:1;stop-color:#ffffff"
         offset="1"
         id="stop236" />
    </linearGradient>
    <clipPath
       clipPathUnits="userSpaceOnUse"
       id="clipPath248">
      <path
         d="m 3180.82,2611.27 c -10.66,0.22 -18.96,-4.75 -24.68,-14.73 -5.59,-9.77 -8.43,-24.44 -8.41,-43.62 0.07,-76.57 0.11,-114.85 0.18,-191.41 0.02,-19.68 2.9,-34.79 8.57,-44.96 5.72,-10.27 14.01,-15.96 24.63,-16.88 10.66,-0.92 18.96,3.5 24.67,13.22 5.61,9.54 8.44,24.27 8.42,43.71 -0.07,77.63 -0.11,116.45 -0.18,194.08 -0.02,19.46 -2.88,34.51 -8.5,44.66 -5.73,10.36 -14.05,15.7 -24.7,15.93 z m 0.38,-400.72 c -44.23,4.65 -78.7,27.16 -102.44,66.64 -23.67,39.34 -35.71,101.28 -35.79,184.97 -0.08,83.67 11.85,144.6 35.45,181.8 23.66,37.32 58.09,56.55 102.32,56.44 44.22,-0.12 78.68,-19.78 102.42,-59.44 23.67,-39.55 35.7,-105.05 35.77,-193.67 0.07,-88.64 -11.86,-152.55 -35.44,-189.16 -23.67,-36.71 -58.08,-52.24 -102.29,-47.58 z"
         id="path246" />
    </clipPath>
    <linearGradient
       x1="0"
       y1="0"
       x2="1"
       y2="0"
       gradientUnits="userSpaceOnUse"
       gradientTransform="matrix(0,-373.444,-373.444,0,3180.95,2656.01)"
       spreadMethod="pad"
       id="linearGradient258">
      <stop
         style="stop-opacity:1;stop-color:#aaacab"
         offset="0"
         id="stop250" />
      <stop
         style="stop-opacity:1;stop-color:#aaacab"
         offset="0.5025"
         id="stop252" />
      <stop
         style="stop-opacity:1;stop-color:#ffffff"
         offset="0.5175"
         id="stop254" />
      <stop
         style="stop-opacity:1;stop-color:#ffffff"
         offset="1"
         id="stop256" />
    </linearGradient>
    <clipPath
       clipPathUnits="userSpaceOnUse"
       id="clipPath268">
      <path
         d="m 3407.39,2192.21 c -0.02,33.84 -0.03,50.78 -0.05,84.63 10.64,-1.23 15.96,-1.85 26.61,-3.12 -0.07,110.4 -0.13,220.79 -0.2,331.18 -15.57,0.46 -23.34,0.68 -38.91,1.11 0.01,-20.94 0.02,-31.41 0.04,-52.36 -20.33,0.85 -30.5,1.26 -50.83,2.06 -0.04,53.98 -0.07,80.96 -0.1,134.94 108.56,-0.59 162.84,-0.94 271.39,-1.72 0.01,-58.24 0.01,-87.35 0.01,-145.59 -20.32,1.06 -30.49,1.58 -50.81,2.58 -0.01,21.96 -0.01,32.94 -0.01,54.91 -15.57,0.51 -23.34,0.77 -38.9,1.26 0.03,-113.26 0.07,-226.53 0.11,-339.8 10.64,-1.39 15.96,-2.09 26.59,-3.52 0.01,-35.25 0.01,-52.88 0.02,-88.15 -57.96,9.28 -86.95,13.6 -144.96,21.59 z"
         id="path266" />
    </clipPath>
    <linearGradient
       x1="0"
       y1="0"
       x2="1"
       y2="0"
       gradientUnits="userSpaceOnUse"
       gradientTransform="matrix(0,-410.776,-410.776,0,3479.65,2651.67)"
       spreadMethod="pad"
       id="linearGradient278">
      <stop
         style="stop-opacity:1;stop-color:#aaacab"
         offset="0"
         id="stop270" />
      <stop
         style="stop-opacity:1;stop-color:#aaacab"
         offset="0.5025"
         id="stop272" />
      <stop
         style="stop-opacity:1;stop-color:#ffffff"
         offset="0.5175"
         id="stop274" />
      <stop
         style="stop-opacity:1;stop-color:#ffffff"
         offset="1"
         id="stop276" />
    </linearGradient>
    <linearGradient
       inkscape:collect="always"
       xlink:href="#linearGradient5038"
       id="linearGradient5040"
       x1="3268.0771"
       y1="-1725.9132"
       x2="3272.9116"
       y2="-1535.9493"
       gradientUnits="userSpaceOnUse" />
  </defs>
  <sodipodi:namedview
     id="namedview4"
     pagecolor="#505050"
     bordercolor="#eeeeee"
     borderopacity="1"
     inkscape:showpageshadow="0"
     inkscape:pageopacity="0"
     inkscape:pagecheckerboard="0"
     inkscape:deskcolor="#505050"
     showgrid="false"
     inkscape:zoom="1.1136932"
     inkscape:cx="256.35427"
     inkscape:cy="359.16536"
     inkscape:window-width="1366"
     inkscape:window-height="705"
     inkscape:window-x="-8"
     inkscape:window-y="-8"
     inkscape:window-maximized="1"
     inkscape:current-layer="g12">
    <inkscape:page
       x="0"
       y="0"
       id="page8"
       width="666.66669"
       height="666.66669" />
  </sodipodi:namedview>
  <g
     id="g10"
     inkscape:groupmode="layer"
     inkscape:label="Page 1"
     transform="matrix(1.3333333,0,0,-1.3333333,0,666.66667)">
    <g
       id="g12"
       transform="scale(0.1)">
      <path
         d="M 5000,0 H 0 V 5000 H 5000 V 0"
         style="fill:none;fill-opacity:0;fill-rule:nonzero;stroke:none"
         id="path14" />
      <path
         d="m 3869.51,3211.16 c -4.74,22.94 -22.39,41.01 -45.2,46.31 l -503.58,116.74 c -47.01,384.97 -377.46,685.32 -774.35,685.32 -387.62,-4 -709.25,-294.77 -763.32,-668.27 l -607.97,-147.68 c -22.76,-5.52 -40.22,-23.79 -44.72,-46.77 -4.51,-22.98 4.78,-46.48 23.77,-60.18 l 124.95,-90.19 c 42.39,-30.59 71.16,-75.7 81.03,-127.04 l 8.81,-45.87 h -149.31 c -33.13,0 -60,-26.87 -60,-60 v -807.22 c 0,-18.41 8.45,-35.8 22.92,-47.17 10.69,-8.4 23.77,-12.83 37.08,-12.83 4.74,0 9.49,0.56 14.18,1.7 71.17,17.3 142.54,33.03 214.01,47.44 v -376.77 c 0,-33.13 26.87,-60 60,-60 33.14,0 60,26.87 60,60 0,9.49 14.76,30.52 65.31,55.04 125.61,-291.4 344.14,-518.46 618.08,-631.73 l 234.45,-96.97 c 7.35,-3.04 15.15,-4.551 22.94,-4.551 1.06,0 2.13,0.031 3.2,0.09 0.86,-0.039 1.73,-0.059 2.59,-0.059 7.99,0 16,1.602 23.51,4.789 l 233.42,99.431 c 268.34,114.25 481.94,338.04 605.49,623.99 42.56,-22.35 55.39,-41.19 55.39,-50.03 0,-33.13 26.86,-60 60,-60 33.13,0 60,26.87 60,60 v 376.58 c 71.46,-14.35 142.85,-30.04 214.06,-47.27 4.68,-1.12 9.41,-1.68 14.12,-1.68 13.32,0 26.42,4.44 37.1,12.84 14.46,11.38 22.9,28.76 22.9,47.16 l 0.01,807.22 c 0,15.91 -6.32,31.17 -17.58,42.42 -11.25,11.25 -26.51,17.58 -42.42,17.58 H 3632.2 l 10.49,57.83 c 9.31,51.43 37.61,96.85 79.68,127.88 l 124.01,91.49 c 18.83,13.9 27.87,37.5 23.13,60.43"
         style="fill:#ffffff;fill-opacity:1;fill-rule:nonzero;stroke:none"
         id="path16" />
      <path
         d="m 3869.51,3211.16 c -4.74,22.94 -22.39,41.01 -45.2,46.31 l -503.58,116.74 c -47.01,384.97 -377.46,685.32 -774.35,685.32 -387.62,-4 -709.25,-294.77 -763.32,-668.27 l -607.97,-147.68 c -22.76,-5.52 -40.22,-23.79 -44.72,-46.77 -4.51,-22.98 4.78,-46.48 23.77,-60.18 l 124.95,-90.19 c 42.39,-30.59 71.16,-75.7 81.03,-127.04 l 8.81,-45.87 h -149.31 c -33.13,0 -60,-26.87 -60,-60 v -807.22 c 0,-18.41 8.45,-35.8 22.92,-47.17 10.69,-8.4 23.77,-12.83 37.08,-12.83 4.74,0 9.49,0.56 14.18,1.7 71.17,17.3 142.54,33.03 214.01,47.44 v -376.77 c 0,-33.13 26.87,-60 60,-60 33.14,0 60,26.87 60,60 0,9.49 14.76,30.52 65.31,55.04 125.61,-291.4 344.14,-518.46 618.08,-631.73 l 234.45,-96.97 c 7.35,-3.04 15.15,-4.551 22.94,-4.551 1.06,0 2.13,0.031 3.2,0.09 0.86,-0.039 1.73,-0.059 2.59,-0.059 7.99,0 16,1.602 23.51,4.789 l 233.42,99.431 c 268.34,114.25 481.94,338.04 605.49,623.99 42.56,-22.35 55.39,-41.19 55.39,-50.03 0,-33.13 26.86,-60 60,-60 33.13,0 60,26.87 60,60 v 376.58 c 71.46,-14.35 142.85,-30.04 214.06,-47.27 4.68,-1.12 9.41,-1.68 14.12,-1.68 13.32,0 26.42,4.44 37.1,12.84 14.46,11.38 22.9,28.76 22.9,47.16 l 0.01,807.22 c 0,15.91 -6.32,31.17 -17.58,42.42 -11.25,11.25 -26.51,17.58 -42.42,17.58 H 3632.2 l 10.49,57.83 c 9.31,51.43 37.61,96.85 79.68,127.88 l 124.01,91.49 c 18.83,13.9 27.87,37.5 23.13,60.43 z"
         style="fill:none;stroke:#231f20;stroke-width:2.5;stroke-linecap:butt;stroke-linejoin:miter;stroke-miterlimit:4;stroke-dasharray:none;stroke-opacity:1"
         id="path18" />
      <path
         d="m 2499.47,3292.71 -2.87,0.28 c -85.03,-9.69 -170.46,-24.86 -254.1,-45.11 l -662.36,-160.38 206,-1072.23 c 67.02,-348.83 276.28,-627.09 559.75,-744.3 l 161.36,-66.73 3.01,1.3 h 0.3 l 3.02,-1.26 160.65,68.41 c 282.23,120.18 488.56,400.61 551.92,750.13 l 194.76,1074.33 -664.02,153.43 c -83.83,19.38 -169.42,33.64 -254.54,42.44 l -2.88,-0.31"
         style="fill:#d45500;fill-opacity:1;fill-rule:nonzero;stroke:none"
         id="path20" />
      <path
         d="m 2535.36,2221.19 c -5.75,-1.25 -11.88,-2 -18.4,-2 l 1.13,-1013.02 156.11,66.48 c 23.92,10.13 47.2,21.53 69.98,33.92 z m -52.7,5.64 -382.95,-797.33 c 57.58,-53.2 121.31,-97.89 190.04,-132.57 l 209.06,924.26 c -5.51,1.26 -11.02,3.14 -16.15,5.64 z m 83.63,9.51 c -4.76,-3.75 -10.02,-7.13 -15.53,-9.76 l 378.82,-782.68 c 50.96,49.2 96.78,105.28 136.71,167 z m -111.67,13.03 -594.64,-476.23 c 27.29,-63.59 59.96,-123.18 97.39,-178.14 l 510.52,641.22 c -5.01,3.88 -9.39,8.39 -13.27,13.15 z m 134.33,15.14 c -2.5,-5.14 -5.64,-10.14 -9.26,-14.77 l 578.37,-461.95 c 22.91,55.83 41.56,114.55 55.83,175.65 z m -149.48,15.9 -674.51,-154.86 21.15,-110.29 c 4.13,-21.29 8.77,-42.44 14.03,-63.22 l 644.84,312.47 c -2.38,5.01 -4.38,10.39 -5.51,15.9 z m 157.11,18.4 c 0,-6.51 -0.75,-12.64 -2,-18.4 l 651.48,-147.97 30.42,168 z m -900.48,185.41 35.68,-186.16 705.69,0.75 c 0,6.51 0.63,12.52 2,18.53 z m 892.72,-150.86 c 2.51,-5 4.38,-10.39 5.63,-15.9 l 715.21,165.63 39.93,220.7 z m -998.38,700.81 61.72,-321.24 792.7,-380.2 c 2.5,5.27 5.76,10.39 9.51,15.16 z m 1600.91,116.04 -625.31,-788.8 c 4.88,-3.88 9.39,-8.27 13.39,-13.28 l 826.37,665.13 15.15,83.88 z m -1115.3,57.34 -241.11,-58.34 632.57,-788.06 c 4.76,3.76 9.77,7.01 15.03,9.52 z m 680.9,43.07 c -8.26,1.88 -16.53,3.75 -24.91,5.51 l -196.92,-879.7 c 5.51,-1.25 10.76,-3.13 15.9,-5.51 l 399.21,835.01 z m -242.99,41.06 c -3.88,0.5 -7.76,1 -11.65,1.38 l -2.88,-0.38 -2.87,0.25 c -67.35,-7.63 -134.96,-18.77 -201.68,-33.17 l 203.3,-883.46 c 6.01,1.26 11.9,2.01 18.41,2.01 l -2.63,913.37"
         style="fill:#ff6600;fill-opacity:1;fill-rule:nonzero;stroke:none"
         id="path22" />
      <path
         d="m 3420.95,3097.14 -664,90.51 c -83.87,19.28 -169.51,33.55 -254.64,42.44 l -2.88,-0.38 -2.87,0.25 c -85.01,-9.64 -170.38,-24.78 -254.01,-45.07 l -662.37,-97.39 662.37,160.36 c 83.63,20.28 169,35.43 254.01,45.07 l 2.87,-0.25 2.88,0.38 c 85.13,-8.89 170.77,-23.16 254.64,-42.44 l 664,-153.48"
         style="fill:#ffffff;fill-opacity:1;fill-rule:nonzero;stroke:none"
         id="path24" />
      <path
         d="m 2510.26,1205.54 -3.01,-1.3 -161.36,66.73 c -283.47,117.21 -492.73,395.47 -559.75,744.3 l -206,1072.23 662.36,160.38 c 83.64,20.25 169.07,35.42 254.1,45.11 l 2.87,-0.28 2.88,0.31 c 85.12,-8.8 170.71,-23.06 254.54,-42.44 l 664.02,-153.43 -194.76,-1074.33 c -63.36,-349.52 -269.69,-629.95 -551.92,-750.13 l -160.65,-68.41 -3.02,1.26 z m -11.77,2275.94 -3.08,0.31 -9.66,-1.05 c -96.16,-10.51 -192.88,-27.45 -287.44,-50.36 l -1009.06,-245.1 124.95,-90.19 c 54.63,-39.42 92.13,-98.22 104.84,-164.37 l 182.69,-950.88 c 78.99,-411.09 330.35,-740.96 672.4,-882.4 l 234.46,-96.97 2.88,1.24 2.91,-1.21 233.42,99.42 c 340.56,145.01 588.44,477.51 663.12,889.41 l 172.72,952.73 c 12.01,66.28 48.9,125.47 103.11,165.46 l 124,91.49 -1011.57,234.52 c -94.8,21.91 -191.69,37.85 -287.96,47.34 l -9.67,0.95 -3.06,-0.34"
         style="fill:#1a1a1a;fill-opacity:1;fill-rule:nonzero;stroke:none"
         id="path26" />
      <path
         d="m 3492.19,1618.68 c 0,310.16 -1984.38,310.16 -1984.38,0 v 679.38 h 1984.38 v -679.38"
         style="fill:#1a1a1a;fill-opacity:1;fill-rule:nonzero;stroke:none;stroke-width:0.99750002;stroke-dasharray:none"
         id="path28" />
      <path
         d="m 2500,1665.61 52.92,-107.23 118.32,-17.19 -85.62,-83.46 20.21,-117.85 -105.83,55.65 -105.83,-55.65 20.21,117.85 -85.62,83.46 118.32,17.19 52.92,107.23"
         style="fill:#333333;fill-opacity:1;fill-rule:nonzero;stroke:none"
         id="path30" />
      <path
         d="m 2261.21,1791.57 27.97,-56.69 62.57,-9.09 -45.28,-44.12 10.69,-62.31 -55.95,29.42 -55.96,-29.42 10.69,62.31 -45.28,44.12 62.57,9.09 27.98,56.69"
         style="fill:#333333;fill-opacity:1;fill-rule:nonzero;stroke:none"
         id="path32" />
      <path
         d="m 2738.8,1791.57 -27.98,-56.69 -62.57,-9.09 45.28,-44.12 -10.69,-62.31 55.96,29.42 55.96,-29.42 -10.7,62.31 45.28,44.12 -62.56,9.09 -27.98,56.69"
         style="fill:#333333;fill-opacity:1;fill-rule:nonzero;stroke:none"
         id="path34" />
      <path
         d="m 2043.03,2907.44 v -40.67 c -84.01,103.75 -137.15,233.5 -145.24,375.1 -0.74,12.58 -1.11,25.3 -1.11,38.08 0,5.55 0.06,11.05 0.19,16.54 l 19.01,-22.96 19.87,-60.61 100.86,-307.57 6.42,2.09"
         style="fill:#ffffff;fill-opacity:1;fill-rule:nonzero;stroke:none"
         id="path36" />
      <path
         d="m 3204.77,3286.85 c 0.23,-12.86 -0.11,-25.49 -0.69,-38.12 -6.55,-141.72 -58.34,-271.95 -141.26,-376.57 l -0.46,40.65 6.44,-2.07 97.62,308.59 19.28,60.86 18.72,23.2 c 0.24,-5.51 0.35,-11.03 0.35,-16.54"
         style="fill:#ffffff;fill-opacity:1;fill-rule:nonzero;stroke:none"
         id="path38" />
      <path
         d="m 2397.2,3107.81 -39.28,-58.68 -97.5,-145.62 -15.5,-23.09 -15.74,4.02 -167.09,42.5 -84.52,257.59 -28.25,86.24 132.76,165.95 233.58,-77.97 81.54,-250.94"
         style="fill:#ffffff;fill-opacity:1;fill-rule:nonzero;stroke:none"
         id="path40" />
      <path
         d="m 3152.29,3277.09 -27.34,-86.59 -81.77,-258.51 -182.36,-48.35 -114.84,167.56 -39.86,58.22 70.06,223.49 8.84,28.24 23.66,8.16 209.13,72.35 134.48,-164.57"
         style="fill:#ffffff;fill-opacity:1;fill-rule:nonzero;stroke:none"
         id="path42" />
      <path
         d="m 2091.16,3466.24 233.19,-77.9 214.75,156.03 v 274.31 l -200.67,47.02 -238.58,-182.18 -8.69,-217.28"
         style="fill:#ffffff;fill-opacity:1;fill-rule:nonzero;stroke:none"
         id="path44" />
      <path
         d="m 3008.39,3471.06 -160.43,-55.47 -71.9,-24.92 -216.36,153.77 -2.87,274.36 200.17,49.04 240.48,-179.61 3.45,-67.76 7.46,-149.41"
         style="fill:#ffffff;fill-opacity:1;fill-rule:nonzero;stroke:none"
         id="path46" />
      <path
         d="m 2321.05,3888.46 6.83,9.14 c -115.75,-42.61 -216.32,-116.89 -291.16,-212.27 l 36.95,10.97 247.38,192.16"
         style="fill:#ffffff;fill-opacity:1;fill-rule:nonzero;stroke:none"
         id="path48" />
      <path
         d="m 3060.53,3690.75 -11.95,3.44 -25.14,7.13 -249.33,189.49 -7,9.07 c 112.2,-39.97 210.61,-109.67 285.38,-199.48 2.87,-3.22 5.4,-6.44 8.04,-9.65"
         style="fill:#ffffff;fill-opacity:1;fill-rule:nonzero;stroke:none"
         id="path50" />
      <path
         d="m 2833.6,2868.6 -134.82,-190.75 -144.82,-0.23 -144.81,-1.38 -136.9,189.37 53.63,80.04 66.96,100.15 29.28,43.76 h 129.66 l 129.66,1.37 29.74,-43.41 122.42,-178.92"
         style="fill:#ffffff;fill-opacity:1;fill-rule:nonzero;stroke:none"
         id="path52" />
      <path
         d="m 2723.93,2646.26 c -54.1,-15.04 -110.94,-23.54 -169.74,-24.11 -58.8,0 -115.65,7.81 -169.85,22.39 l 5.51,2.98 0.12,-2.29 164.1,1.49 164.23,0.23 v 2.3 l 5.63,-2.99"
         style="fill:#ffffff;fill-opacity:1;fill-rule:nonzero;stroke:none"
         id="path54" />
      <path
         d="m 2553.92,2677.65 -144.79,-1.37 -136.92,189.38 149.87,223.9 h 129.68 l 129.68,1.36 152.2,-222.32 -134.92,-190.8 z m 0.29,-55.56 c -58.75,0.03 -115.69,7.84 -169.92,22.38 l 5.61,0.77 164.18,1.55 164.19,0.17 5.62,-0.71 c -54.08,-15.1 -110.94,-23.52 -169.68,-24.16 z m 306.54,261.55 -154.6,225.81 78.88,251.71 232.75,80.48 134.52,-164.58 -109.15,-345.01 z m -798.7,43.27 -112.76,343.85 132.79,165.98 233.58,-78.03 81.51,-250.88 -152.22,-227.42 z m 1006.74,-16.17 116.87,369.45 18.79,23.14 c 0.2,-5.49 0.33,-10.99 0.38,-16.51 1.64,-156.39 -51.73,-300.75 -142.03,-414.73 z m -1025.76,-43.99 c -91.48,113.02 -146.37,256.82 -146.37,413.22 0,5.52 0.07,11.02 0.21,16.5 l 19.02,-22.93 120.75,-368.21 z m 1017.5,823.95 -37.05,10.58 -249.39,189.55 -6.93,9.07 c 116.19,-41.39 217.54,-114.61 293.37,-209.2 z m -732.65,206.9 -6.83,-9.14 -247.38,-192.16 -36.95,-10.97 c 74.84,95.38 175.41,169.66 291.16,212.27 z m 429.07,-29.7 240.47,-179.68 10.97,-217.18 -232.35,-80.33 -216.39,153.77 -2.87,274.29 z m -217.85,-49.22 v -274.31 l -214.75,-156.03 -233.19,77.9 8.69,217.28 238.58,182.18 z m 7.89,180.85 c -393.33,-4.06 -712.06,-325.29 -712.06,-719.56 0,-396.79 322.81,-719.6 719.6,-719.6 396.77,4.16 716.18,330.33 712.03,727.1 -4.13,394.25 -326.22,712.12 -719.57,712.06"
         style="fill:#1c202e;fill-opacity:1;fill-rule:nonzero;stroke:none"
         id="path56" />
      <path
         d="m 2549.74,3446.59 -200.62,-73.01 200.39,146.02 201.91,-143.91 -201.37,70.91 -0.31,-0.01"
         style="fill:#ff6600;fill-opacity:1;fill-rule:nonzero;stroke:none"
         id="path58" />
      <path
         d="m 2547.87,3832.91 -203.4,48.59 203.23,-15.12 203.04,17.25 -202.87,-50.72"
         style="fill:#ff6600;fill-opacity:1;fill-rule:nonzero;stroke:none"
         id="path60" />
      <path
         d="m 2028.41,3660.43 48.09,15.07 -10.76,-211.74 -118.07,-158.26 88.28,174.06 15.79,172.62 -23.33,8.25"
         style="fill:#ff6600;fill-opacity:1;fill-rule:nonzero;stroke:none"
         id="path62" />
      <path
         d="m 3069.1,3665.88 -48.25,14.57 12.99,-211.61 119.72,-157.02 -90.1,173.12 -17.6,172.45 23.24,8.49"
         style="fill:#ff6600;fill-opacity:1;fill-rule:nonzero;stroke:none"
         id="path64" />
      <path
         d="m 2062.15,2857.26 v 45.22 l 193.8,-45.22 116.27,-172.26 -136.38,153.59 -163.64,45 -10.05,-26.33"
         style="fill:#ff6600;fill-opacity:1;fill-rule:nonzero;stroke:none"
         id="path66" />
      <path
         d="m 3043.78,2862.4 -0.47,45.22 -193.31,-47.25 -114.47,-173.48 134.75,155.03 163.18,46.7 10.32,-26.22"
         style="fill:#ff6600;fill-opacity:1;fill-rule:nonzero;stroke:none"
         id="path68" />
      <path
         d="m 2229.18,2884.44 c 10.46,6.21 20.91,12.64 31.24,19.07 l -15.5,-23.09 -15.74,4.02"
         style="fill:#a5b8ba;fill-opacity:1;fill-rule:nonzero;stroke:none"
         id="path70" />
      <path
         d="m 2718.3,2649.25 5.63,-2.99 c -54.1,-15.04 -110.94,-23.54 -169.74,-24.11 -58.8,0 -115.65,7.81 -169.85,22.39 l 5.51,2.98 0.12,-2.29 164.1,1.49 164.23,0.23 v 2.3"
         style="fill:#a5b8ba;fill-opacity:1;fill-rule:nonzero;stroke:none"
         id="path72" />
      <path
         d="m 2711.18,3047.52 122.42,-178.92 -134.82,-190.75 -144.82,-0.23 -144.81,-1.38 -136.9,189.37 53.63,80.04 c 67.19,44.68 131.96,92.57 194.43,143.91 h 31.47 l 129.66,1.37 29.74,-43.41"
         style="fill:#a5b8ba;fill-opacity:1;fill-rule:nonzero;stroke:none"
         id="path74" />
      <path
         d="m 3008.39,3471.06 -160.43,-55.47 c 53.62,64.65 104.62,132.87 152.97,204.88 l 7.46,-149.41"
         style="fill:#a5b8ba;fill-opacity:1;fill-rule:nonzero;stroke:none"
         id="path76" />
      <path
         d="m 3060.53,3690.75 -11.95,3.44 c 1.26,2.07 2.65,4.14 3.91,6.21 2.87,-3.22 5.4,-6.44 8.04,-9.65"
         style="fill:#a5b8ba;fill-opacity:1;fill-rule:nonzero;stroke:none"
         id="path78" />
      <path
         d="m 3124.95,3190.5 -81.77,-258.51 -182.36,-48.35 -114.84,167.56 -39.86,58.22 70.06,223.49 c 10.91,11.94 21.82,24.11 32.5,36.4 l 209.13,72.35 134.48,-164.57 -27.34,-86.59"
         style="fill:#a5b8ba;fill-opacity:1;fill-rule:nonzero;stroke:none"
         id="path80" />
      <path
         d="m 3204.77,3286.85 c 0.23,-12.86 -0.11,-25.49 -0.69,-38.12 -6.55,-141.72 -58.34,-271.95 -141.26,-376.57 l -0.46,40.65 6.44,-2.07 97.62,308.59 19.28,60.86 18.72,23.2 c 0.24,-5.51 0.35,-11.03 0.35,-16.54"
         style="fill:#a5b8ba;fill-opacity:1;fill-rule:nonzero;stroke:none"
         id="path82" />
      <path
         d="m 3780.37,2006.31 c -855.66,207.13 -1709.25,207 -2560.75,0 v 807.22 h 2560.76 l -0.01,-807.22"
         style="fill:#1a1a1a;fill-opacity:1;fill-rule:nonzero;stroke:none"
         id="path84" />
      <text
         xml:space="preserve"
         style="font-size:417.07px;font-family:BRONSON;-inkscape-font-specification:'BRONSON, Normal';fill:url(#linearGradient5040);fill-opacity:1;stroke:#000000;stroke-width:45.33750176;paint-order:stroke fill markers;stroke-dasharray:none"
         x="1811.6324"
         y="-1549.3728"
         id="text4922"
         transform="scale(0.69649837,-1.4357535)"><tspan
           sodipodi:role="line"
           id="tspan4920"
           style="stroke-width:45.33750176;fill:url(#linearGradient5040);fill-opacity:1;stroke-dasharray:none"
           x="1811.6324"
           y="-1549.3728">PRODE BUKY</tspan></text>
      <text
         xml:space="preserve"
         style="font-style:normal;font-variant:normal;font-weight:normal;font-stretch:normal;font-size:100px;font-family:BRONSON;-inkscape-font-specification:'BRONSON, Normal';font-variant-ligatures:normal;font-variant-caps:normal;font-variant-numeric:normal;font-variant-east-asian:normal;white-space:pre;inline-size:1838.59;fill:#e6e6e6;fill-opacity:1;stroke:#000000;stroke-width:45.3375;stroke-dasharray:none;paint-order:stroke fill markers"
         x="1720.6266"
         y="-1949.3392"
         id="text5160"
         transform="scale(1,-1)"><tspan
           x="1720.6266"
           y="-1949.3392"
           id="tspan6898">HUEVO GARRA CORAZON</tspan></text>
    </g>
  </g>
</svg>
